<svg viewBox="0 0 128 128" xmlns="http://www.w3.org/2000/svg" id="technology">
  <defs>
  <style>
    @media(prefers-color-scheme:dark){:root{--color-logo-shape:#000;--color-logo-base:#fff;}}
    body[data-color-scheme="dark"]{--color-logo-shape:#000;--color-logo-base:#fff;}
  </style>
  <path id="d" d="M6,47l58-47,58,47-58,45z" />
  <path id="s" d="M6,47v12l58,45v-12z" />
  <path id="h" d="M52.3,31.9l4.3-3.6,3.6,3.2c2.1,1.9,5.7.9,6.5-1.4.5-1.2.2-2.5-.8-3.4l-3.6-3.2,2.8-2.3c1.6-1.3,3.9-1.3,5.3.1l24.8,22.2c1.5,1.3,1.4,3.3-.2,4.6l-29.5,24.6c-1.4,1.2-3.8,1.2-5.2-.1l-14.4-12.9c1.5.1,3.1-.1,4.7-.6l11.8,10.6c.7.6,1.7.5,2.3,0l26.9-22.5c.6-.5.7-1.4.1-2l-17.4-15.6c-.7-.6-1.7-.5-2.3,0l-11,9.2c-.8-1.3-1.6-2.5-2.9-3.6-1.7-1.5-3.7-2.5-5.9-3.2zm-6.8,4.3,2.7-.1-.8,8.2,5.8,5.2-2.1,1.8-6.6-5.9zm-10.5-.7c5.9-4.9,15.4-4.5,21.2.7,5.9,5.3,6,13.6.1,18.4-5.9,4.9-15.4,4.5-21.3-.8-2.1-1.9-3.5-4.1-4-6.4l-3.6-.2,5.7-4.7,5.6,5.1-4.7-.1c.6,1.7,1.6,3.2,3.1,4.6,4.7,4.2,12.4,4.6,17.2.7,4.7-3.9,4.6-10.6,0-14.8-4.6-4.2-12.3-4.5-17.1-.6-1.3,1.1-2.2,2.4-2.8,3.7l-2.2-2c.7-1.4,1.6-2.5,2.9-3.6zm29,7.1,2.9-2.4,2.7,2.5-2.9,2.4zm6-5.2,2.9-2.4,2.7,2.5-2.9,2.4zm-12.9,20.4,2.9-2.5,2.7,2.5-2.9,2.4zm5.9-5.2,2.9-2.4,2.7,2.5-2.9,2.4zm6-5.2,2.9-2.4,2.7,2.5-2.9,2.4zm6-5.2,2.9-2.4,2.7,2.5-2.9,2.4zm-12.9,20.4,2.9-2.4,2.7,2.5-2.9,2.4zm5.9-5.2,2.9-2.4,2.7,2.5-2.9,2.4zm6-5.2,2.9-2.5,2.7,2.5-2.9,2.5zm6-5.2,2.9-2.4,2.7,2.5-2.9,2.4zm-21.2-24.2,5.2,4.6c1.5,1.3-1.2,3.6-2.7,2.3l-5.2-4.6" />
  </defs>
  <use href="#s" fill="#9ee0ff"/>
  <use href="#s" fill="#6bd0ff" y="12"/>
  <use href="#s" fill="#38c0ff" y="24"/>
  <g transform="matrix(-1 0 0 1 128 0)">
    <use href="#s" fill="#f29eff"/>
    <use href="#s" fill="#eb6bff" y="12"/>
    <use href="#s" fill="#e438ff" y="24"/>
  </g>
  <use href="#d" style="fill:var(--color-logo-base,#000)"/>
  <use href="#h" style="fill:var(--color-logo-shape,#fff)"/>
</svg>
